MutatorSansInstance_200-900.ufo
<glyph name="period" format="2">
  <advance width="283"/>
  <unicode hex="002E"/>
  <outline>
    <contour>
      <point x="103" y="0" type="line"/>
      <point x="181" y="0" type="line"/>
      <point x="181" y="228" type="line"/>
      <point x="103" y="228" type="line"/>
    </contour>
  </outline>
</glyph>
<glyph name="A" format="2">
  <advance width="1143"/>
  <unicode hex="0041"/>
  <outline>
    <contour>
      <point x="49" y="0" type="line"/>
      <point x="150" y="0" type="line"/>
      <point x="585" y="720" type="line"/>
      <point x="497" y="720" type="line"/>
    </contour>
    <contour>
      <point x="230" y="198" type="line"/>
      <point x="894" y="198" type="line"/>
      <point x="894" y="267" type="line"/>
      <point x="230" y="267" type="line"/>
    </contour>
    <contour>
      <point x="968" y="0" type="line"/>
      <point x="1101" y="0" type="line"/>
      <point x="653" y="720" type="line"/>
      <point x="527" y="720" type="line"/>
    </contour>
    <contour>
      <point x="509" y="639" type="line"/>
      <point x="631" y="639" type="line"/>
      <point x="631" y="720" type="line"/>
      <point x="509" y="720" type="line"/>
    </contour>
  </outline>
</glyph>
<glyph name="B" format="2">
  <advance width="1128"/>
  <unicode hex="0042"/>
  <outline>
    <contour>
      <point x="103" y="0" type="line"/>
      <point x="216" y="0" type="line"/>
      <point x="216" y="720" type="line"/>
      <point x="103" y="720" type="line"/>
    </contour>
    <contour>
      <point x="194" y="334" type="line"/>
      <point x="798" y="334" type="line" smooth="yes"/>
      <point x="900" y="334"/>
      <point x="950" y="281"/>
      <point x="950" y="204" type="curve" smooth="yes"/>
      <point x="950" y="127"/>
      <point x="900" y="76"/>
      <point x="797" y="76" type="curve" smooth="yes"/>
      <point x="194" y="76" type="line"/>
      <point x="194" y="0" type="line"/>
      <point x="822" y="0" type="line" smooth="yes"/>
      <point x="1000" y="0"/>
      <point x="1064" y="85"/>
      <point x="1064" y="192" type="curve" smooth="yes"/>
      <point x="1064" y="290"/>
      <point x="1009" y="361"/>
      <point x="892" y="377" type="curve"/>
      <point x="874" y="352" type="line"/>
      <point x="964" y="375"/>
      <point x="1013" y="440"/>
      <point x="1013" y="526" type="curve" smooth="yes"/>
      <point x="1013" y="637"/>
      <point x="947" y="720"/>
      <point x="767" y="720" type="curve" smooth="yes"/>
      <point x="194" y="720" type="line"/>
      <point x="194" y="646" type="line"/>
      <point x="746" y="646" type="line" smooth="yes"/>
      <point x="851" y="646"/>
      <point x="900" y="595"/>
      <point x="900" y="519" type="curve" smooth="yes"/>
      <point x="900" y="440"/>
      <point x="850" y="390"/>
      <point x="746" y="390" type="curve" smooth="yes"/>
      <point x="194" y="390" type="line"/>
    </contour>
  </outline>
</glyph>
<glyph name="C" format="2">
  <advance width="1242"/>
  <unicode hex="0043"/>
  <outline>
    <contour>
      <point x="1058" y="293" type="line"/>
      <point x="1025" y="137"/>
      <point x="874" y="72"/>
      <point x="652" y="72" type="curve" smooth="yes"/>
      <point x="598" y="72" type="line" smooth="yes"/>
      <point x="345" y="72"/>
      <point x="185" y="157"/>
      <point x="185" y="362" type="curve" smooth="yes"/>
      <point x="185" y="566"/>
      <point x="345" y="648"/>
      <point x="598" y="648" type="curve" smooth="yes"/>
      <point x="652" y="648" type="line" smooth="yes"/>
      <point x="873" y="648"/>
      <point x="1023" y="585"/>
      <point x="1057" y="434" type="curve"/>
      <point x="1172" y="446" type="line"/>
      <point x="1131" y="639"/>
      <point x="941" y="730"/>
      <point x="661" y="730" type="curve" smooth="yes"/>
      <point x="588" y="730" type="line" smooth="yes"/>
      <point x="269" y="730"/>
      <point x="69" y="613"/>
      <point x="69" y="362" type="curve" smooth="yes"/>
      <point x="69" y="110"/>
      <point x="269" y="-10"/>
      <point x="588" y="-10" type="curve" smooth="yes"/>
      <point x="661" y="-10" type="line" smooth="yes"/>
      <point x="943" y="-10"/>
      <point x="1133" y="84"/>
      <point x="1173" y="282" type="curve"/>
    </contour>
  </outline>
</glyph>
<glyph name="D" format="2">
  <advance width="1136"/>
  <unicode hex="0044"/>
  <outline>
    <contour>
      <point x="103" y="0" type="line"/>
      <point x="216" y="0" type="line"/>
      <point x="216" y="720" type="line"/>
      <point x="103" y="720" type="line"/>
    </contour>
    <contour>
      <point x="190" y="640" type="line"/>
      <point x="535" y="640" type="line" smooth="yes"/>
      <point x="789" y="640"/>
      <point x="951" y="566"/>
      <point x="951" y="362" type="curve" smooth="yes"/>
      <point x="951" y="157"/>
      <point x="789" y="80"/>
      <point x="535" y="80" type="curve" smooth="yes"/>
      <point x="190" y="80" type="line"/>
      <point x="190" y="0" type="line"/>
      <point x="544" y="0" type="line" smooth="yes"/>
      <point x="864" y="0"/>
      <point x="1067" y="110"/>
      <point x="1067" y="362" type="curve" smooth="yes"/>
      <point x="1067" y="613"/>
      <point x="864" y="720"/>
      <point x="544" y="720" type="curve" smooth="yes"/>
      <point x="190" y="720" type="line"/>
    </contour>
  </outline>
</glyph>
<glyph name="E" format="2">
  <advance width="1052"/>
  <unicode hex="0045"/>
  <anchor x="511" y="765" name="top"/>
  <outline>
    <contour>
      <point x="103" y="0" type="line"/>
      <point x="216" y="0" type="line"/>
      <point x="216" y="720" type="line"/>
      <point x="103" y="720" type="line"/>
    </contour>
    <contour>
      <point x="137" y="637" type="line"/>
      <point x="951" y="637" type="line"/>
      <point x="951" y="720" type="line"/>
      <point x="137" y="720" type="line"/>
    </contour>
    <contour>
      <point x="137" y="0" type="line"/>
      <point x="951" y="0" type="line"/>
      <point x="951" y="83" type="line"/>
      <point x="137" y="83" type="line"/>
    </contour>
    <contour>
      <point x="137" y="330" type="line"/>
      <point x="824" y="330" type="line"/>
      <point x="824" y="393" type="line"/>
      <point x="137" y="393" type="line"/>
    </contour>
  </outline>
</glyph>
<glyph name="F" format="2">
  <advance width="1089"/>
  <unicode hex="0046"/>
  <outline>
    <contour>
      <point x="103" y="0" type="line"/>
      <point x="217" y="0" type="line"/>
      <point x="217" y="720" type="line"/>
      <point x="103" y="720" type="line"/>
    </contour>
    <contour>
      <point x="137" y="638" type="line"/>
      <point x="986" y="638" type="line"/>
      <point x="986" y="720" type="line"/>
      <point x="137" y="720" type="line"/>
    </contour>
    <contour>
      <point x="137" y="285" type="line"/>
      <point x="950" y="285" type="line"/>
      <point x="950" y="359" type="line"/>
      <point x="137" y="359" type="line"/>
    </contour>
  </outline>
</glyph>
<glyph name="G" format="2">
  <advance width="1299"/>
  <unicode hex="0047"/>
  <outline>
    <contour>
      <point x="482" y="303" type="line"/>
      <point x="1093" y="303" type="line"/>
      <point x="1093" y="216" type="line"/>
      <point x="1144" y="0" type="line"/>
      <point x="1206" y="0" type="line"/>
      <point x="1206" y="348" type="line"/>
      <point x="482" y="348" type="line"/>
    </contour>
    <contour>
      <point x="1094" y="297" type="line"/>
      <point x="1062" y="139"/>
      <point x="911" y="72"/>
      <point x="688" y="72" type="curve" smooth="yes"/>
      <point x="598" y="72" type="line" smooth="yes"/>
      <point x="345" y="72"/>
      <point x="185" y="157"/>
      <point x="185" y="362" type="curve" smooth="yes"/>
      <point x="185" y="566"/>
      <point x="346" y="648"/>
      <point x="599" y="648" type="curve" smooth="yes"/>
      <point x="689" y="648" type="line" smooth="yes"/>
      <point x="910" y="648"/>
      <point x="1059" y="585"/>
      <point x="1094" y="434" type="curve"/>
      <point x="1208" y="446" type="line"/>
      <point x="1167" y="639"/>
      <point x="978" y="730"/>
      <point x="698" y="730" type="curve" smooth="yes"/>
      <point x="588" y="730" type="line" smooth="yes"/>
      <point x="270" y="730"/>
      <point x="69" y="613"/>
      <point x="69" y="362" type="curve" smooth="yes"/>
      <point x="69" y="110"/>
      <point x="269" y="-10"/>
      <point x="588" y="-10" type="curve" smooth="yes"/>
      <point x="665" y="-10" type="line" smooth="yes"/>
      <point x="947" y="-10"/>
      <point x="1128" y="86"/>
      <point x="1167" y="285" type="curve"/>
    </contour>
  </outline>
</glyph>
<glyph name="H" format="2">
  <advance width="1117"/>
  <unicode hex="0048"/>
  <outline>
    <contour>
      <point x="103" y="0" type="line"/>
      <point x="217" y="0" type="line"/>
      <point x="217" y="720" type="line"/>
      <point x="103" y="720" type="line"/>
    </contour>
    <contour>
      <point x="154" y="321" type="line"/>
      <point x="969" y="321" type="line"/>
      <point x="969" y="402" type="line"/>
      <point x="154" y="402" type="line"/>
    </contour>
    <contour>
      <point x="901" y="0" type="line"/>
      <point x="1015" y="0" type="line"/>
      <point x="1015" y="720" type="line"/>
      <point x="901" y="720" type="line"/>
    </contour>
  </outline>
</glyph>
<glyph name="I" format="2">
  <advance width="890"/>
  <unicode hex="0049"/>
  <outline>
    <contour>
      <point x="392" y="0" type="line"/>
      <point x="506" y="0" type="line"/>
      <point x="506" y="720" type="line"/>
      <point x="392" y="720" type="line"/>
    </contour>
    <contour>
      <point x="103" y="637" type="line"/>
      <point x="787" y="637" type="line"/>
      <point x="787" y="720" type="line"/>
      <point x="103" y="720" type="line"/>
    </contour>
    <contour>
      <point x="103" y="0" type="line"/>
      <point x="787" y="0" type="line"/>
      <point x="787" y="83" type="line"/>
      <point x="103" y="83" type="line"/>
    </contour>
  </outline>
</glyph>
<glyph name="J" format="2">
  <advance width="835"/>
  <unicode hex="004A"/>
  <outline>
    <contour>
      <point x="260" y="-10" type="curve" smooth="yes"/>
      <point x="550" y="-10"/>
      <point x="732" y="108"/>
      <point x="732" y="356" type="curve" smooth="yes"/>
      <point x="732" y="720" type="line"/>
      <point x="616" y="720" type="line"/>
      <point x="616" y="363" type="line" smooth="yes"/>
      <point x="616" y="162"/>
      <point x="478" y="77"/>
      <point x="259" y="77" type="curve" smooth="yes"/>
      <point x="213" y="77"/>
      <point x="166" y="82"/>
      <point x="121" y="91" type="curve"/>
      <point x="103" y="4" type="line"/>
      <point x="151" y="-6"/>
      <point x="203" y="-10"/>
    </contour>
  </outline>
</glyph>
<glyph name="K" format="2">
  <advance width="1021"/>
  <unicode hex="004B"/>
  <outline>
    <contour>
      <point x="103" y="0" type="line"/>
      <point x="217" y="0" type="line"/>
      <point x="217" y="720" type="line"/>
      <point x="103" y="720" type="line"/>
    </contour>
    <contour>
      <point x="167" y="302" type="line"/>
      <point x="269" y="302" type="line"/>
      <point x="788" y="0" type="line"/>
      <point x="957" y="0" type="line"/>
      <point x="352" y="370" type="line"/>
      <point x="280" y="356" type="line"/>
      <point x="167" y="356" type="line"/>
    </contour>
    <contour>
      <point x="247" y="339" type="line"/>
      <point x="322" y="308" type="line"/>
      <point x="955" y="720" type="line"/>
      <point x="810" y="720" type="line"/>
    </contour>
  </outline>
</glyph>
<glyph name="L" format="2">
  <advance width="932"/>
  <unicode hex="004C"/>
  <outline>
    <contour>
      <point x="103" y="0" type="line"/>
      <point x="217" y="0" type="line"/>
      <point x="217" y="720" type="line"/>
      <point x="103" y="720" type="line"/>
    </contour>
    <contour>
      <point x="137" y="0" type="line"/>
      <point x="896" y="0" type="line"/>
      <point x="896" y="84" type="line"/>
      <point x="137" y="84" type="line"/>
    </contour>
  </outline>
</glyph>
<glyph name="M" format="2">
  <advance width="1207"/>
  <unicode hex="004D"/>
  <outline>
    <contour>
      <point x="103" y="0" type="line"/>
      <point x="197" y="0" type="line"/>
      <point x="197" y="720" type="line"/>
      <point x="103" y="720" type="line"/>
    </contour>
    <contour>
      <point x="1104" y="0" type="line"/>
      <point x="1104" y="720" type="line"/>
      <point x="1010" y="720" type="line"/>
      <point x="1010" y="0" type="line"/>
    </contour>
    <contour>
      <point x="1048" y="611" type="line"/>
      <point x="1010" y="720" type="line"/>
      <point x="580" y="325" type="line"/>
      <point x="626" y="325" type="line"/>
      <point x="197" y="720" type="line"/>
      <point x="159" y="611" type="line"/>
      <point x="578" y="224" type="line"/>
      <point x="629" y="224" type="line"/>
    </contour>
  </outline>
</glyph>
<glyph name="N" format="2">
  <advance width="1142"/>
  <unicode hex="004E"/>
  <outline>
    <contour>
      <point x="103" y="0" type="line"/>
      <point x="197" y="0" type="line"/>
      <point x="197" y="720" type="line"/>
      <point x="103" y="720" type="line"/>
    </contour>
    <contour>
      <point x="159" y="622" type="line"/>
      <point x="945" y="0" type="line"/>
      <point x="984" y="99" type="line"/>
      <point x="197" y="720" type="line"/>
    </contour>
    <contour>
      <point x="945" y="0" type="line"/>
      <point x="1039" y="0" type="line"/>
      <point x="1039" y="720" type="line"/>
      <point x="945" y="720" type="line"/>
    </contour>
  </outline>
</glyph>
<glyph name="O" format="2">
  <advance width="1257"/>
  <unicode hex="004F"/>
  <outline>
    <contour>
      <point x="588" y="-10" type="curve" smooth="yes"/>
      <point x="668" y="-10" type="line" smooth="yes"/>
      <point x="987" y="-10"/>
      <point x="1188" y="110"/>
      <point x="1188" y="362" type="curve" smooth="yes"/>
      <point x="1188" y="613"/>
      <point x="987" y="730"/>
      <point x="668" y="730" type="curve" smooth="yes"/>
      <point x="588" y="730" type="line" smooth="yes"/>
      <point x="269" y="730"/>
      <point x="69" y="613"/>
      <point x="69" y="362" type="curve" smooth="yes"/>
      <point x="69" y="110"/>
      <point x="269" y="-10"/>
    </contour>
    <contour>
      <point x="598" y="72" type="line" smooth="yes"/>
      <point x="345" y="72"/>
      <point x="185" y="157"/>
      <point x="185" y="362" type="curve" smooth="yes"/>
      <point x="185" y="566"/>
      <point x="345" y="648"/>
      <point x="598" y="648" type="curve" smooth="yes"/>
      <point x="659" y="648" type="line" smooth="yes"/>
      <point x="912" y="648"/>
      <point x="1072" y="566"/>
      <point x="1072" y="362" type="curve" smooth="yes"/>
      <point x="1072" y="157"/>
      <point x="912" y="72"/>
      <point x="659" y="72" type="curve" smooth="yes"/>
    </contour>
  </outline>
</glyph>
<glyph name="P" format="2">
  <advance width="1058"/>
  <unicode hex="0050"/>
  <outline>
    <contour>
      <point x="103" y="0" type="line"/>
      <point x="217" y="0" type="line"/>
      <point x="217" y="720" type="line"/>
      <point x="103" y="720" type="line"/>
    </contour>
    <contour>
      <point x="169" y="631" type="line"/>
      <point x="604" y="631" type="line" smooth="yes"/>
      <point x="845" y="631"/>
      <point x="917" y="560"/>
      <point x="917" y="437" type="curve" smooth="yes"/>
      <point x="917" y="313"/>
      <point x="845" y="243"/>
      <point x="604" y="243" type="curve" smooth="yes"/>
      <point x="169" y="243" type="line"/>
      <point x="169" y="154" type="line"/>
      <point x="590" y="154" type="line" smooth="yes"/>
      <point x="945" y="154"/>
      <point x="1022" y="274"/>
      <point x="1022" y="437" type="curve" smooth="yes"/>
      <point x="1022" y="602"/>
      <point x="945" y="720"/>
      <point x="590" y="720" type="curve" smooth="yes"/>
      <point x="169" y="720" type="line"/>
    </contour>
  </outline>
</glyph>
<glyph name="Q" format="2">
  <advance width="1257"/>
  <unicode hex="0051"/>
  <outline>
    <contour>
      <point x="645" y="-130" type="line"/>
      <point x="762" y="-130" type="line"/>
      <point x="656" y="44" type="line"/>
      <point x="549" y="30" type="line"/>
    </contour>
    <component base="O"/>
  </outline>
</glyph>
<glyph name="R" format="2">
  <advance width="1102"/>
  <unicode hex="0052"/>
  <outline>
    <contour>
      <point x="875" y="0" type="line"/>
      <point x="1011" y="0" type="line"/>
      <point x="897" y="100" type="line" smooth="yes"/>
      <point x="823" y="163"/>
      <point x="777" y="194"/>
      <point x="729" y="193" type="curve"/>
      <point x="659" y="193" type="line"/>
    </contour>
    <contour>
      <point x="103" y="0" type="line"/>
      <point x="217" y="0" type="line"/>
      <point x="217" y="720" type="line"/>
      <point x="103" y="720" type="line"/>
    </contour>
    <contour>
      <point x="169" y="631" type="line"/>
      <point x="611" y="631" type="line" smooth="yes"/>
      <point x="845" y="631"/>
      <point x="914" y="560"/>
      <point x="914" y="437" type="curve" smooth="yes"/>
      <point x="914" y="313"/>
      <point x="845" y="243"/>
      <point x="611" y="243" type="curve" smooth="yes"/>
      <point x="169" y="243" type="line"/>
      <point x="169" y="167" type="line"/>
      <point x="590" y="167" type="line" smooth="yes"/>
      <point x="945" y="167"/>
      <point x="1023" y="284"/>
      <point x="1023" y="443" type="curve" smooth="yes"/>
      <point x="1023" y="604"/>
      <point x="945" y="720"/>
      <point x="590" y="720" type="curve" smooth="yes"/>
      <point x="169" y="720" type="line"/>
    </contour>
  </outline>
</glyph>
<glyph name="S" format="2">
  <advance width="1120"/>
  <unicode hex="0053"/>
  <outline>
    <contour>
      <point x="1031" y="201" type="curve" smooth="yes"/>
      <point x="1031" y="340"/>
      <point x="945" y="389"/>
      <point x="663" y="403" type="curve" smooth="yes"/>
      <point x="495" y="411" type="line" smooth="yes"/>
      <point x="314" y="421"/>
      <point x="210" y="445"/>
      <point x="210" y="528" type="curve" smooth="yes"/>
      <point x="210" y="605"/>
      <point x="300" y="651"/>
      <point x="516" y="651" type="curve" smooth="yes"/>
      <point x="577" y="651" type="line" smooth="yes"/>
      <point x="760" y="651"/>
      <point x="889" y="618"/>
      <point x="987" y="575" type="curve"/>
      <point x="1011" y="648" type="line"/>
      <point x="907" y="694"/>
      <point x="754" y="729"/>
      <point x="586" y="729" type="curve" smooth="yes"/>
      <point x="541" y="729" type="line" smooth="yes"/>
      <point x="242" y="729"/>
      <point x="110" y="659"/>
      <point x="111" y="522" type="curve" smooth="yes"/>
      <point x="111" y="394"/>
      <point x="207" y="341"/>
      <point x="479" y="327" type="curve" smooth="yes"/>
      <point x="643" y="319" type="line" smooth="yes"/>
      <point x="838" y="308"/>
      <point x="930" y="292"/>
      <point x="930" y="203" type="curve" smooth="yes"/>
      <point x="930" y="115"/>
      <point x="833" y="69"/>
      <point x="574" y="69" type="curve" smooth="yes"/>
      <point x="515" y="69" type="line" smooth="yes"/>
      <point x="350" y="69"/>
      <point x="215" y="102"/>
      <point x="112" y="146" type="curve"/>
      <point x="91" y="72" type="line"/>
      <point x="201" y="25"/>
      <point x="358" y="-9"/>
      <point x="506" y="-9" type="curve" smooth="yes"/>
      <point x="554" y="-9" type="line" smooth="yes"/>
      <point x="900" y="-9"/>
      <point x="1032" y="70"/>
    </contour>
  </outline>
</glyph>
<glyph name="T" format="2">
  <advance width="1095"/>
  <unicode hex="0054"/>
  <outline>
    <contour>
      <point x="491" y="0" type="line"/>
      <point x="605" y="0" type="line"/>
      <point x="605" y="720" type="line"/>
      <point x="491" y="720" type="line"/>
    </contour>
    <contour>
      <point x="35" y="630" type="line"/>
      <point x="1060" y="630" type="line"/>
      <point x="1060" y="720" type="line"/>
      <point x="35" y="720" type="line"/>
    </contour>
  </outline>
</glyph>
<glyph name="U" format="2">
  <advance width="1141"/>
  <unicode hex="0055"/>
  <outline>
    <contour>
      <point x="570" y="-10" type="curve" smooth="yes"/>
      <point x="855" y="-10"/>
      <point x="1033" y="107"/>
      <point x="1033" y="353" type="curve" smooth="yes"/>
      <point x="1033" y="720" type="line"/>
      <point x="917" y="720" type="line"/>
      <point x="917" y="352" type="line" smooth="yes"/>
      <point x="917" y="158"/>
      <point x="783" y="77"/>
      <point x="570" y="77" type="curve" smooth="yes"/>
      <point x="358" y="77"/>
      <point x="224" y="158"/>
      <point x="224" y="352" type="curve" smooth="yes"/>
      <point x="224" y="720" type="line"/>
      <point x="108" y="720" type="line"/>
      <point x="108" y="353" type="line" smooth="yes"/>
      <point x="108" y="107"/>
      <point x="285" y="-10"/>
    </contour>
  </outline>
</glyph>
<glyph name="V" format="2">
  <advance width="1127"/>
  <unicode hex="0056"/>
  <outline>
    <contour>
      <point x="1092" y="720" type="line"/>
      <point x="992" y="720" type="line"/>
      <point x="559" y="0" type="line"/>
      <point x="650" y="0" type="line"/>
    </contour>
    <contour>
      <point x="168" y="720" type="line"/>
      <point x="34" y="720" type="line"/>
      <point x="480" y="0" type="line"/>
      <point x="606" y="0" type="line"/>
    </contour>
    <contour>
      <point x="635" y="81" type="line"/>
      <point x="505" y="81" type="line"/>
      <point x="505" y="0" type="line"/>
      <point x="635" y="0" type="line"/>
    </contour>
  </outline>
</glyph>
<glyph name="W" format="2">
  <advance width="1290"/>
  <unicode hex="0057"/>
  <outline>
    <contour>
      <point x="1254" y="720" type="line"/>
      <point x="1148" y="720" type="line"/>
      <point x="912" y="104" type="line"/>
      <point x="927" y="104" type="line"/>
      <point x="685" y="720" type="line"/>
      <point x="610" y="720" type="line"/>
      <point x="379" y="96" type="line"/>
      <point x="398" y="96" type="line"/>
      <point x="153" y="720" type="line"/>
      <point x="34" y="720" type="line"/>
      <point x="313" y="0" type="line"/>
      <point x="415" y="0" type="line"/>
      <point x="646" y="616" type="line"/>
      <point x="622" y="615" type="line"/>
      <point x="873" y="0" type="line"/>
      <point x="983" y="0" type="line"/>
    </contour>
  </outline>
</glyph>
<glyph name="X" format="2">
  <advance width="1012"/>
  <unicode hex="0058"/>
  <outline>
    <contour>
      <point x="835" y="0" type="line"/>
      <point x="978" y="0" type="line"/>
      <point x="547" y="390" type="line"/>
      <point x="185" y="720" type="line"/>
      <point x="42" y="720" type="line"/>
      <point x="457" y="354" type="line"/>
    </contour>
    <contour>
      <point x="36" y="-1" type="line"/>
      <point x="159" y="0" type="line"/>
      <point x="512" y="343" type="line"/>
      <point x="549" y="343" type="line"/>
      <point x="970" y="720" type="line"/>
      <point x="845" y="720" type="line"/>
      <point x="492" y="391" type="line"/>
      <point x="453" y="391" type="line"/>
    </contour>
  </outline>
</glyph>
<glyph name="Y" format="2">
  <advance width="979"/>
  <unicode hex="0059"/>
  <outline>
    <contour>
      <point x="952" y="720" type="line"/>
      <point x="845" y="720" type="line"/>
      <point x="475" y="203" type="line"/>
      <point x="540" y="182" type="line"/>
    </contour>
    <contour>
      <point x="151" y="720" type="line"/>
      <point x="27" y="720" type="line"/>
      <point x="437" y="182" type="line"/>
      <point x="532" y="203" type="line"/>
    </contour>
    <contour>
      <point x="546" y="246" type="line"/>
      <point x="432" y="246" type="line"/>
      <point x="432" y="0" type="line"/>
      <point x="546" y="0" type="line"/>
    </contour>
  </outline>
</glyph>
<glyph name="Z" format="2">
  <advance width="1142"/>
  <unicode hex="005A"/>
  <outline>
    <contour>
      <point x="103" y="84" type="line"/>
      <point x="231" y="51" type="line"/>
      <point x="1040" y="636" type="line"/>
      <point x="911" y="669" type="line"/>
    </contour>
    <contour>
      <point x="103" y="636" type="line"/>
      <point x="1040" y="636" type="line"/>
      <point x="1040" y="720" type="line"/>
      <point x="103" y="720" type="line"/>
    </contour>
    <contour>
      <point x="103" y="0" type="line"/>
      <point x="1040" y="0" type="line"/>
      <point x="1040" y="84" type="line"/>
      <point x="103" y="84" type="line"/>
    </contour>
  </outline>
</glyph>
